<?xml version="1.0" standalone="no"?>
<!DOCTYPE svg PUBLIC "-//W3C//DTD SVG 20010904//EN"
 "http://www.w3.org/TR/2001/REC-SVG-20010904/DTD/svg10.dtd">
<svg version="1.0" xmlns="http://www.w3.org/2000/svg"
 width="72.000000pt" height="71.000000pt" viewBox="0 0 72.000000 71.000000"
 preserveAspectRatio="xMidYMid meet">

<g transform="translate(0.000000,71.000000) scale(0.100000,-0.100000)"
fill="#000000" stroke="none">
<path d="M286 559 c-64 -9 -86 -19 -43 -19 44 0 31 -19 -15 -23 l-43 -4 43 -1
c35 -2 42 -5 42 -22 0 -18 -7 -20 -59 -20 -62 0 -71 -7 -71 -53 0 -20 5 -22
52 -22 46 0 53 -3 53 -20 0 -17 -8 -20 -57 -23 -32 -2 -58 -6 -58 -10 -1 -4
-7 -33 -14 -64 -17 -69 -4 -77 24 -16 13 31 19 37 19 22 1 -26 77 -62 94 -45
7 7 15 5 24 -7 8 -9 12 -12 9 -5 -4 6 -2 33 3 60 6 26 13 69 16 96 6 42 9 47
31 47 24 0 25 -3 20 -37 -3 -21 -8 -60 -12 -88 -4 -27 -11 -58 -16 -67 -7 -14
-5 -18 12 -18 12 0 20 7 21 18 0 10 3 12 6 4 8 -19 61 -14 83 8 16 16 23 42
30 103 13 112 15 107 -24 107 -35 0 -63 21 -51 40 3 5 39 11 78 12 40 0 57 3
40 5 -33 4 -44 18 -20 26 14 4 -109 28 -139 26 -10 -1 -46 -5 -78 -10z m92
-61 c-8 -23 -35 -33 -52 -19 -9 7 -13 17 -10 22 8 14 66 11 62 -3z"/>
<path d="M605 471 l-50 -6 -17 -105 c-9 -58 -17 -113 -17 -123 -2 -32 23 -12
34 27 6 20 16 40 21 44 35 23 48 121 17 123 -10 1 1 5 25 11 25 5 42 15 42 24
0 8 -1 13 -2 12 -2 0 -25 -4 -53 -7z"/>
</g>
</svg>
